<svg width="702" height="527" viewBox="0 0 702 527" xmlns="http://www.w3.org/2000/svg" xmlns:xlink="http://www.w3.org/1999/xlink"><defs><filter x="-2.9%" y="-6.2%" width="105.8%" height="117.5%" filterUnits="objectBoundingBox" id="b"><feOffset dy="2" in="SourceAlpha" result="shadowOffsetOuter1"/><feGaussianBlur stdDeviation="2" in="shadowOffsetOuter1" result="shadowBlurOuter1"/><feColorMatrix values="0 0 0 0 0 0 0 0 0 0 0 0 0 0 0 0 0 0 0.1 0" in="shadowBlurOuter1"/></filter><filter x="-2.9%" y="-6.2%" width="105.8%" height="117.5%" filterUnits="objectBoundingBox" id="d"><feOffset dy="2" in="SourceAlpha" result="shadowOffsetOuter1"/><feGaussianBlur stdDeviation="2" in="shadowOffsetOuter1" result="shadowBlurOuter1"/><feColorMatrix values="0 0 0 0 0 0 0 0 0 0 0 0 0 0 0 0 0 0 0.1 0" in="shadowBlurOuter1"/></filter><filter x="-28.3%" y="-25.3%" width="156.5%" height="156.5%" filterUnits="objectBoundingBox" id="f"><feOffset dy="5" in="SourceAlpha" result="shadowOffsetOuter1"/><feGaussianBlur stdDeviation="15" in="shadowOffsetOuter1" result="shadowBlurOuter1"/><feColorMatrix values="0 0 0 0 0 0 0 0 0 0 0 0 0 0 0 0 0 0 0.1 0" in="shadowBlurOuter1"/></filter><filter x="-2.9%" y="-6.2%" width="105.8%" height="117.5%" filterUnits="objectBoundingBox" id="h"><feOffset dy="2" in="SourceAlpha" result="shadowOffsetOuter1"/><feGaussianBlur stdDeviation="2" in="shadowOffsetOuter1" result="shadowBlurOuter1"/><feColorMatrix values="0 0 0 0 0 0 0 0 0 0 0 0 0 0 0 0 0 0 0.1 0" in="shadowBlurOuter1"/></filter><filter x="-2.9%" y="-6.2%" width="105.8%" height="117.5%" filterUnits="objectBoundingBox" id="j"><feOffset dy="2" in="SourceAlpha" result="shadowOffsetOuter1"/><feGaussianBlur stdDeviation="2" in="shadowOffsetOuter1" result="shadowBlurOuter1"/><feColorMatrix values="0 0 0 0 0 0 0 0 0 0 0 0 0 0 0 0 0 0 0.1 0" in="shadowBlurOuter1"/></filter><filter x="-2.9%" y="-6.2%" width="105.8%" height="117.5%" filterUnits="objectBoundingBox" id="l"><feOffset dy="2" in="SourceAlpha" result="shadowOffsetOuter1"/><feGaussianBlur stdDeviation="2" in="shadowOffsetOuter1" result="shadowBlurOuter1"/><feColorMatrix values="0 0 0 0 0 0 0 0 0 0 0 0 0 0 0 0 0 0 0.1 0" in="shadowBlurOuter1"/></filter><filter x="-2.9%" y="-6.2%" width="105.8%" height="117.5%" filterUnits="objectBoundingBox" id="n"><feOffset dy="2" in="SourceAlpha" result="shadowOffsetOuter1"/><feGaussianBlur stdDeviation="2" in="shadowOffsetOuter1" result="shadowBlurOuter1"/><feColorMatrix values="0 0 0 0 0 0 0 0 0 0 0 0 0 0 0 0 0 0 0.1 0" in="shadowBlurOuter1"/></filter><rect id="c" x="0" y="0" width="240" height="80" rx="40"/><rect id="e" x="0" y="0" width="240" height="80" rx="40"/><rect id="i" x="0" y="0" width="240" height="80" rx="40"/><rect id="k" x="0" y="0" width="240" height="80" rx="40"/><rect id="m" x="0" y="0" width="240" height="80" rx="40"/><rect id="o" x="0" y="0" width="240" height="80" rx="40"/><linearGradient x1="0%" y1="0%" x2="100%" y2="100%" id="a"><stop stop-color="#02F0DC" offset="0%"/><stop stop-color="#5A4FC9" offset="100%"/></linearGradient><circle id="g" cx="84" cy="84" r="84"/></defs><g fill="none" fill-rule="evenodd"><path d="M342 57l3.688.03C467.146 59 565 158.072 565 280c0 123.16-99.84 223-223 223s-223-99.84-223-223c0-61.834 25.36-119.499 68.704-161.012L164.43 95.716h84.853v84.853l-25.458-25.46c-33.92 32.077-53.757 76.82-53.757 124.891 0 94.955 76.976 171.931 171.931 171.931 94.955 0 171.931-76.976 171.931-171.931 0-94.955-76.976-171.931-171.931-171.931V57z" fill="url(#a)" transform="translate(4 24)"/><g transform="translate(4 192)"><use fill="#000" filter="url(#b)" xlink:href="#c"/><use fill="#FFF" xlink:href="#c"/></g><g fill="#02F0DC"><path d="M32.744 248.251c-.302 0-.606-.076-.886-.23a1.908 1.908 0 01-.983-1.678v-28.686c0-.702.377-1.344.983-1.678a1.817 1.817 0 011.875.062l22.513 14.344c.55.35.879.954.879 1.615s-.328 1.264-.878 1.615l-22.513 14.344a1.835 1.835 0 01-.99.292zM32.748 217a.608.608 0 00-.289.075.65.65 0 00-.334.582v28.686c0 .249.125.467.334.582a.58.58 0 00.603-.02l22.513-14.344c.27-.173.3-.45.3-.561a.655.655 0 00-.3-.56l-22.513-14.344a.581.581 0 00-.314-.096z"/><path d="M35.25 224.67v14.66c0 1.003 1.073 1.616 1.9 1.089l11.508-7.33c.785-.5.785-1.676 0-2.176l-11.508-7.331c-.828-.528-1.9.086-1.9 1.088z"/></g><text font-family="Helvetica" font-size="16" fill="#2A2A2C" transform="translate(4 192)"><tspan x="80" y="44">Media Booking</tspan></text><g transform="translate(458 192)"><use fill="#000" filter="url(#d)" xlink:href="#e"/><use fill="#FFF" xlink:href="#e"/></g><g fill="#02F0DC"><path d="M487.375 242.625h21.25v2.5h-21.25z"/><path d="M509.25 218.25h-2.5v-.625a1.877 1.877 0 00-1.875-1.875h-1.25a1.877 1.877 0 00-1.875 1.875v.625h-7.5v-.625a1.877 1.877 0 00-1.875-1.875h-1.25a1.877 1.877 0 00-1.875 1.875v.625h-2.5a3.129 3.129 0 00-3.125 3.125v23.75a3.129 3.129 0 003.125 3.125h22.5a3.129 3.129 0 003.125-3.125v-23.75a3.129 3.129 0 00-3.125-3.125zm-3.75 2.5c0 .345-.28.625-.625.625h-1.25a.625.625 0 01-.625-.625v-3.125c0-.345.28-.625.625-.625h1.25c.345 0 .625.28.625.625v3.125zm-12.5 0c0 .345-.28.625-.625.625h-1.25a.625.625 0 01-.625-.625v-3.125c0-.345.28-.625.625-.625h1.25c.345 0 .625.28.625.625v3.125zm-6.25-1.25h2.5v1.25c0 1.034.84 1.875 1.875 1.875h1.25a1.877 1.877 0 001.875-1.875v-1.25h7.5v1.25c0 1.034.84 1.875 1.875 1.875h1.25a1.877 1.877 0 001.875-1.875v-1.25h2.5c1.034 0 1.875.841 1.875 1.875v4.375h-26.25v-4.375c0-1.034.84-1.875 1.875-1.875zm.625 23.634c0 .071.404.116.625.116h20c.22 0 .625-.045.625-.115v.74c0 .345-.28.625-.625.625h-20a.625.625 0 01-.625-.625v-.74zm21.25-1.759c0 .345-.28.625-.625.625h-20a.625.625 0 01-.625-.625V227h21.25v14.375zm.625 5.625h-22.5a1.877 1.877 0 01-1.875-1.875V227h1.25v16.875c0 1.034.84 1.875 1.875 1.875h20a1.877 1.877 0 001.875-1.875V227h1.25v18.125A1.877 1.877 0 01509.25 247z"/><path d="M504.875 235.125c0 .345-.28.625-.625.625h-3.75a.625.625 0 01-.625-.625v-3.75c0-.345.28-.625.625-.625h1.875v-1.25H500.5a1.877 1.877 0 00-1.875 1.875v3.75c0 1.034.84 1.875 1.875 1.875h3.75a1.877 1.877 0 001.875-1.875v-1.25h-1.25v1.25z"/><path d="M502.375 232.991l-.808-.808-.884.884 1.692 1.692 4.192-4.192-.884-.884z"/></g><text font-family="Helvetica" font-size="16" fill="#2A2A2C" transform="translate(458 192)"><tspan x="80" y="44">Media Planning</tspan></text><g transform="translate(262 24)"><use fill="#000" filter="url(#f)" xlink:href="#g"/><use fill="#FFF" xlink:href="#g"/></g><text font-family="Helvetica" font-size="16" fill="#2A2A2C" transform="translate(262 24)"><tspan x="52.93" y="111">Strategic </tspan> <tspan x="53.363" y="133">Planning</tspan></text><path d="M360.375 77.625c1.034 0 1.875.841 1.875 1.875v5a1.877 1.877 0 01-1.875 1.875h-18.75a1.877 1.877 0 01-1.875-1.875v-5c0-1.034.841-1.875 1.875-1.875zm-25 0v1.25h-3.75a.625.625 0 00-.625.625v5c0 .345.28.625.625.625h5c.345 0 .625-.28.625-.625V82h1.25v2.5a1.877 1.877 0 01-1.875 1.875h-5a1.877 1.877 0 01-1.875-1.875v-5c0-1.034.841-1.875 1.875-1.875h3.75zm25 1.25h-18.75a.625.625 0 00-.625.625v5c0 .345.28.625.625.625h18.75c.345 0 .625-.28.625-.625v-5a.625.625 0 00-.625-.625zm-24.924.916l.883.883L335.01 82l1.325 1.326-.883.883-1.326-1.325-1.326 1.325-.883-.883L333.24 82l-1.325-1.326.883-.883 1.326 1.325 1.326-1.325zm23.674.334c.345 0 .625.28.625.625v2.5c0 .345-.28.625-.625.625h-6.25a.625.625 0 01-.625-.625v-2.5c0-.345.28-.625.625-.625h6.25zm-10.625 2.5v1.25h-6.25v-1.25h6.25zm2.5-2.5v1.25h-8.75v-1.25H351zm9.375-12.5c1.034 0 1.875.841 1.875 1.875v5a1.877 1.877 0 01-1.875 1.875h-18.75a1.877 1.877 0 01-1.875-1.875v-5c0-1.034.841-1.875 1.875-1.875zm-25 0v1.25h-3.75a.625.625 0 00-.625.625v5c0 .345.28.625.625.625h5c.345 0 .625-.28.625-.625V72h1.25v2.5a1.877 1.877 0 01-1.875 1.875h-5a1.877 1.877 0 01-1.875-1.875v-5c0-1.034.841-1.875 1.875-1.875h3.75zm25 1.25h-18.75a.625.625 0 00-.625.625v5c0 .345.28.625.625.625h18.75c.345 0 .625-.28.625-.625v-5a.625.625 0 00-.625-.625zm-23.567.808l.884.884-3.88 3.88-2.004-2.005.884-.884 1.12 1.12 2.996-2.995zm22.317.442c.345 0 .625.28.625.625v2.5c0 .345-.28.625-.625.625h-6.25a.625.625 0 01-.625-.625v-2.5c0-.345.28-.625.625-.625h6.25zm-10.625 2.5v1.25h-6.25v-1.25h6.25zm2.5-2.5v1.25h-8.75v-1.25H351zm-15.625-12.5v1.25h-3.75a.625.625 0 00-.625.625v5c0 .345.28.625.625.625h5c.345 0 .625-.28.625-.625V62h1.25v2.5a1.877 1.877 0 01-1.875 1.875h-5a1.877 1.877 0 01-1.875-1.875v-5c0-1.034.841-1.875 1.875-1.875h3.75zm25 0c1.034 0 1.875.841 1.875 1.875v5a1.877 1.877 0 01-1.875 1.875h-18.75a1.877 1.877 0 01-1.875-1.875v-5c0-1.034.841-1.875 1.875-1.875zm0 1.25h-18.75a.625.625 0 00-.625.625v5c0 .345.28.625.625.625h18.75c.345 0 .625-.28.625-.625v-5a.625.625 0 00-.625-.625zm-23.567.808l.884.884-3.88 3.88-2.004-2.005.884-.884 1.12 1.12 2.996-2.995zm22.317.442c.345 0 .625.28.625.625v2.5c0 .345-.28.625-.625.625h-6.25a.625.625 0 01-.625-.625v-2.5c0-.345.28-.625.625-.625h6.25zm-10.625 2.5v1.25h-6.25v-1.25h6.25zm2.5-2.5v1.25h-8.75v-1.25H351z" fill="#02F0DC"/><path stroke="#E0E0E0" stroke-linecap="square" d="M346.5 96.5v16"/><g transform="translate(358 416)"><use fill="#000" filter="url(#h)" xlink:href="#i"/><use fill="#FFF" xlink:href="#i"/></g><path d="M398 439.75c8.96 0 16.25 7.29 16.25 16.25s-7.29 16.25-16.25 16.25-16.25-7.29-16.25-16.25 7.29-16.25 16.25-16.25zm0 1.25c-8.27 0-15 6.73-15 15s6.73 15 15 15 15-6.73 15-15-6.73-15-15-15zm2.183 4.394c1.4 0 2.292.102 2.82.148l-.003 3.582-2.256.001c-1.562 0-1.494.742-1.494 1.831v2.556l3.77-.012-.644 3.75h-3.126v9.375h-3.75v-9.375h-3.75v-3.75h3.75v-3.113c0-3.233 1.761-4.993 4.683-4.993z" fill="#02F0DC"/><text font-family="Helvetica" font-size="16" fill="#2A2A2C" transform="translate(358 416)"><tspan x="80" y="44">Facebook Ads</tspan></text><g transform="translate(94 416)"><use fill="#000" filter="url(#j)" xlink:href="#k"/><use fill="#FFF" xlink:href="#k"/></g><path d="M144.625 454.75a3.75 3.75 0 013.75 3.75v8.75a3.75 3.75 0 01-3.75 3.75h-21.25a3.75 3.75 0 01-3.75-3.75v-8.75a3.75 3.75 0 013.75-3.75zm-14.687 3.125h-5.625a.313.313 0 00-.313.313v.625c0 .172.14.312.313.312h2.187v7.813c0 .172.14.312.313.312h.624c.173 0 .313-.14.313-.312v-7.813h2.188c.172 0 .312-.14.312-.313v-.625a.313.313 0 00-.313-.312zm.625 3.125h-.625a.313.313 0 00-.313.313V466c0 .69.56 1.25 1.25 1.25h1.25c.69 0 1.25-.56 1.25-1.25v-4.688a.313.313 0 00-.313-.312h-.625a.313.313 0 00-.312.313V466h-1.25v-4.688a.313.313 0 00-.313-.312zm5-3.125h-.625a.313.313 0 00-.313.313V466c0 .69.56 1.25 1.25 1.25h1.875c.69 0 1.25-.56 1.25-1.25v-4.375c0-.69-.56-1.25-1.25-1.25h-1.875v-2.188a.313.313 0 00-.313-.312zM142.75 461h-1.25c-.69 0-1.25.56-1.25 1.25V466c0 .69.56 1.25 1.25 1.25h1.25c.69 0 1.25-.56 1.25-1.25v-.33a.296.296 0 00-.296-.295h-.658a.296.296 0 00-.296.296V466h-1.25v-1.25h1.25c.69 0 1.25-.56 1.25-1.25v-1.25c0-.69-.56-1.25-1.25-1.25zm-5.313.625c.173 0 .313.14.313.313v3.75c0 .172-.14.312-.313.312h-1.25a.313.313 0 01-.312-.312v-3.75c0-.173.14-.313.313-.313zm5.313.625v1.25h-1.25v-1.25h1.25zm-4.688-17.5c.173 0 .313.14.313.312v4.688h1.25v-4.688c0-.172.14-.312.313-.312h.625c.172 0 .312.14.312.312v4.688c0 .69-.56 1.25-1.25 1.25h-1.25c-.69 0-1.25-.56-1.25-1.25v-4.688c0-.172.14-.312.313-.312zm-3.437 0c.69 0 1.25.56 1.25 1.25v3.75c0 .69-.56 1.25-1.25 1.25h-1.25c-.69 0-1.25-.56-1.25-1.25V446c0-.69.56-1.25 1.25-1.25zm-8.438-3.125c.173 0 .313.14.313.312V446h3.125v-4.063c0-.172.14-.312.313-.312h.625c.172 0 .312.14.312.312v7.813c0 .69-.56 1.25-1.25 1.25h-4.063a.313.313 0 01-.312-.313v-.625c0-.172.14-.312.313-.312h4.062v-2.5H126.5c-.69 0-1.25-.56-1.25-1.25v-4.063c0-.172.14-.312.313-.312zm8.126 4.375h-.625a.313.313 0 00-.313.313v3.125c0 .172.14.312.313.312h.625c.172 0 .312-.14.312-.313v-3.125a.313.313 0 00-.313-.312z" fill="#02F0DC"/><text font-family="Helvetica" font-size="16" fill="#2A2A2C" transform="translate(94 416)"><tspan x="80" y="31">Youtube Ads Youtube </tspan> <tspan x="80" y="53">Masthead</tspan></text><g transform="translate(28 304)"><use fill="#000" filter="url(#l)" xlink:href="#m"/><use fill="#FFF" xlink:href="#m"/></g><path d="M68.319 327.75c4.222 0 8.057 1.464 11.09 4.232l.487.446-5.472 5.363-.437-.41c-1.514-1.419-3.474-2.168-5.668-2.168-3.76 0-7.108 2.418-8.33 6.016a8.573 8.573 0 00-.467 2.766c0 .923.157 1.852.467 2.762 1.22 3.594 4.568 6.009 8.33 6.009 1.905 0 3.653-.487 5.057-1.409a6.79 6.79 0 002.72-3.607h-8.721v-7.5h16.498l.08.532c.178 1.18.297 2.216.297 3.431 0 4.91-1.761 9.204-4.96 12.09-2.854 2.582-6.648 3.947-10.971 3.947-6.296 0-11.968-3.428-14.805-8.947A16.108 16.108 0 0151.75 344c0-2.522.61-5.047 1.764-7.303 2.837-5.519 8.51-8.947 14.805-8.947zm0 1.25c-5.825 0-11.072 3.168-13.692 8.268A14.645 14.645 0 0053 344c0 2.357.547 4.622 1.627 6.732 2.62 5.1 7.867 8.268 13.692 8.268 4.008 0 7.512-1.253 10.132-3.624C81.385 352.73 83 348.765 83 344.213c0-.954-.08-1.8-.206-2.713H68.625v5h9.035l-.147.746a8.06 8.06 0 01-3.451 5.156c-1.607 1.055-3.593 1.614-5.743 1.614-4.297 0-8.12-2.755-9.513-6.857a9.81 9.81 0 01-.533-3.164c0-1.062.18-2.128.533-3.168 1.394-4.105 5.217-6.863 9.513-6.863 2.306 0 4.392.727 6.072 2.11l3.677-3.603c-2.716-2.274-6.072-3.471-9.75-3.471zM68 330.875c2.453 0 4.844.68 6.917 1.968l-.66 1.062a11.845 11.845 0 00-6.257-1.78c-6.548 0-11.875 5.327-11.875 11.875S61.452 355.875 68 355.875c6.338 0 11.533-4.991 11.859-11.25H70.5v-1.25h10.625V344c0 7.237-5.888 13.125-13.125 13.125-7.238 0-13.125-5.888-13.125-13.125S60.762 330.875 68 330.875z" fill="#02F0DC"/><text font-family="Helvetica" font-size="16" fill="#2A2A2C" transform="translate(28 304)"><tspan x="80" y="31">Google GDN </tspan> <tspan x="80" y="53">Google SEM</tspan></text><g transform="translate(424 304)"><use fill="#000" filter="url(#n)" xlink:href="#o"/><use fill="#FFF" xlink:href="#o"/></g><path d="M459.647 329c.575 0 1.11.257 1.467.705l1.75 2.186a.616.616 0 00.485.234h9.401c1.034 0 1.875.841 1.875 1.875v12.532a6.258 6.258 0 015.625 6.218A6.257 6.257 0 01474 359h-2.5a6.258 6.258 0 01-6.218-5.625h-15.657a1.877 1.877 0 01-1.875-1.875v-20.622a1.88 1.88 0 011.878-1.878zM474 347.75h-2.5c-2.757 0-5 2.243-5 5s2.243 5 5 5h2.5c2.757 0 5-2.243 5-5s-2.243-5-5-5zm0 1.875c1.034 0 1.875.841 1.875 1.875 0 .345.28.625.625.625h.625v1.25h-.625a.625.625 0 00-.625.625 1.877 1.877 0 01-1.875 1.875h-.625v-1.25H474c.345 0 .625-.28.625-.625 0-.48.181-.918.479-1.25a1.867 1.867 0 01-.479-1.25.625.625 0 00-.625-.625h-.625v-1.25zm-1.875 0v1.25h-.625a.625.625 0 00-.625.625c0 .48-.181.918-.479 1.25.298.332.479.77.479 1.25 0 .345.28.625.625.625h.625v1.25h-.625a1.877 1.877 0 01-1.875-1.875.625.625 0 00-.625-.625h-.625v-1.25H469c.345 0 .625-.28.625-.625 0-1.034.841-1.875 1.875-1.875h.625zm1.25-13.75H454v16.25h11.282a6.23 6.23 0 011.762-3.75h-1.169v-1.25h2.919a6.202 6.202 0 012.706-.625h1.875v-10.625zm-20.625 0H449V351.5c0 .345.28.625.625.625h3.125v-16.25zm-1.875 10.938a.938.938 0 110 1.875.938.938 0 010-1.875zm13.75.312v1.25h-6.25v-1.25h6.25zm7.5-2.5v1.25h-3.75v-1.25h3.75zm-5 0v1.25h-3.75v-1.25h3.75zm-16.25-1.563a.937.937 0 110 1.875.937.937 0 010-1.875zm21.25-.937v1.25h-3.75v-1.25h3.75zm-5 0v1.25h-3.75v-1.25h3.75zm-16.25-2.813a.937.937 0 110 1.875.937.937 0 010-1.875zm13.75.313v1.25h-6.25v-1.25h6.25zm7.5 0v1.25h-6.25v-1.25h6.25zm-18.102-9.375h-4.395a.629.629 0 00-.628.628v3.747h24.375V334a.625.625 0 00-.625-.625h-15.026a1.86 1.86 0 01-1.462-.703l-1.75-2.186a.622.622 0 00-.49-.236zm5.624 0h-3.721l1.313 1.641a.616.616 0 00.485.234h3.726l-1.313-1.64a.622.622 0 00-.49-.235z" fill="#02F0DC"/><text font-family="Helvetica" font-size="16" fill="#2A2A2C" transform="translate(424 304)"><tspan x="80" y="31">Programmatic </tspan> <tspan x="80" y="53">Campaign</tspan></text></g></svg>